<?xml version="1.0" encoding="utf-8"?>
<!-- Generator: Adobe Illustrator 25.2.0, SVG Export Plug-In . SVG Version: 6.00 Build 0)  -->
<svg version="1.1" id="Capa_1" xmlns="http://www.w3.org/2000/svg" xmlns:xlink="http://www.w3.org/1999/xlink" x="0px" y="0px"
	 viewBox="0 0 120 120" style="enable-background:new 0 0 120 120;" xml:space="preserve">
<style type="text/css">
	.cls-1{fill:#399946;}
	.cls-2{fill:#231f20;}
</style>
<g>
	<path class="cls-1" d="M96.37,1.71H23.63C11.53,1.71,1.71,13.93,1.71,29V92.72c0,15.07,9.82,27.28,21.92,27.28H96.37c12.1,0,21.92-12.21,21.92-27.28V29C118.29,13.93,108.47,1.71,96.37,1.71Z"/><path class="cls-2" d="M80.15,103.8S65,89.27,60.15,89.27s-20,14.53-20,14.53Z"/><path class="cls-2" d="M96.37,0H23.63A23.66,23.66,0,0,0,0,23.63V35.69l13.16-8.9,10.71,7.75L36,26.73l12.18,7.76,12.14-7.73,11.06,7.77L83.5,26.7l13.8,7.79,12-8.64L120,36.06V23.63A23.66,23.66,0,0,0,96.37,0Z"/><path class="cls-2" d="M97,6a17,17,0,0,1,17,17V97a17,17,0,0,1-17,17H23A17,17,0,0,1,6,97V23A17,17,0,0,1,23,6H97m0-6H23A23,23,0,0,0,0,23V97a23,23,0,0,0,23,23H97a23,23,0,0,0,23-23V23A23,23,0,0,0,97,0Z"/><path class="cls-2" d="M18.13,48.87A17.49,17.49,0,1,0,50.4,59.81Z"/><path class="cls-2" d="M102.26,48.87A17.49,17.49,0,1,1,70,59.81Z"/>
</g>
</svg>